<?xml version="1.0" encoding="utf-8"?>
<!-- Generator: Adobe Illustrator 26.0.1, SVG Export Plug-In . SVG Version: 6.00 Build 0)  -->
<svg version="1.1" id="Layer_1" xmlns="http://www.w3.org/2000/svg" xmlns:xlink="http://www.w3.org/1999/xlink" x="0px" y="0px"
	 viewBox="0 0 320 320" style="enable-background:new 0 0 320 320;" xml:space="preserve">
<style type="text/css">
	.st0{fill:url(#SVGID_1_);}
</style>
<g id="Layer_2_00000008836062429775563050000016178340554410807473_">
	<g id="Layer_1-2">
		
			<radialGradient id="SVGID_1_" cx="491.37" cy="332.11" r="428.66" gradientTransform="matrix(1 0 0 -1 0 322)" gradientUnits="userSpaceOnUse">
			<stop  offset="5.114678e-07" style="stop-color:#33AAFF"/>
			<stop  offset="1" style="stop-color:#0077CC"/>
		</radialGradient>
		<path class="st0" d="M98.5,181.3c0-1.7,0.7-3.2,2.1-4.2c1.8-1.2,3.9-1.8,6-1.6c2.1-0.1,4.2,0.4,6,1.6c1.3,1,2.1,2.5,2.1,4.2v22.2
			h11.7v-22.2c0.2-3.9-1.7-7.7-5-9.9c-3.3-2.3-8.3-3.5-14.8-3.5s-11.4,1.2-14.7,3.5c-3.3,2.2-5.2,5.9-5,9.9v22.2h11.6V181.3z
			 M126.3,156.6H86.8v7.5h39.5V156.6z M195.5,219.7c2.8,1,5.8-0.4,6.9-3.1c0,0,0,0,0,0l2.7-7.2h16.6l2.7,7.2
			c1.2,2.7,4.4,3.9,7.1,2.6c2.4-1.1,3.7-3.8,2.9-6.4l-16-42.7c-1-2.8-4.1-4.2-6.9-3.1c-1.4,0.5-2.6,1.7-3.1,3.1l-16,42.7
			C191.3,215.6,192.7,218.6,195.5,219.7C195.5,219.7,195.5,219.7,195.5,219.7z M213.3,187.2l4.3,11.5H209L213.3,187.2z M287.9,26.7
			c-3.7-0.8-7.3,1.6-8.1,5.3s1.6,7.3,5.3,8.1s7.3-1.6,8.1-5.3c0.1-0.5,0.1-0.9,0.1-1.4C293.4,30.1,291.1,27.3,287.9,26.7z
			 M257.5,27.2c-1.7,0.7-3,2-3.6,3.6c-0.7,1.6-0.7,3.5,0,5.1c1.4,3.4,5.3,5,8.7,3.6c3.4-1.4,5-5.3,3.6-8.7S260.9,25.8,257.5,27.2
			C257.5,27.2,257.5,27.2,257.5,27.2z M73.3,240h75.5c2.3,7.9,9.6,13.3,17.8,13.3h66.7c36.1,0,40-18.7,40-26.7V160
			c0-14.7-11.9-26.7-26.7-26.7h-75.5c-0.8-2.6-2.1-5.1-3.9-7.1c-7.7-8.6-8.8-6.2-93.9-6.2c-14.7,0-26.7,11.9-26.7,26.7v66.7
			C46.7,228.1,58.6,240,73.3,240z M161.3,234.1l9.9-87.4h75.5c7.4,0,13.3,6,13.3,13.3v66.7c0,11-14.5,13.3-26.7,13.3h-66.7
			c-3,0-5.4-2.4-5.4-5.4c0,0,0,0,0,0C161.3,234.4,161.3,234.2,161.3,234.1z M60,146.7c0-7.4,6-13.3,13.3-13.3c0,0,0,0,0,0
			c86.7,0,81.7-0.7,83.9,1.8s2.2-3.6-8.5,91.5H73.3c-7.4,0-13.3-6-13.3-13.3c0,0,0,0,0,0V146.7z M286.7,0H33.3C14.9,0,0,14.9,0,33.3
			v253.3C0,305.1,14.9,320,33.3,320h253.3c18.4,0,33.3-14.9,33.3-33.3V33.3C320,14.9,305.1,0,286.7,0z M306.7,286.7c0,11-9,20-20,20
			H33.3c-11,0-20-9-20-20v-220h293.3V286.7z M306.7,53.3H13.3v-20c0-11,9-20,20-20l0,0h253.3c11,0,20,9,20,20V53.3z M235.9,27.2
			c-3.4-1.4-7.3,0.1-8.7,3.5c-1.4,3.4,0.1,7.3,3.5,8.7c2.5,1.1,5.4,0.5,7.4-1.5c0.6-0.6,1.1-1.4,1.4-2.2
			C240.8,32.5,239.2,28.6,235.9,27.2z M153.3,26.7h-120c-3.7,0.1-6.5,3.2-6.4,6.9c0.1,3.5,2.9,6.3,6.4,6.4h120
			c3.7,0.1,6.8-2.7,6.9-6.4s-2.7-6.8-6.4-6.9C153.7,26.7,153.5,26.7,153.3,26.7z"/>
	</g>
</g>
</svg>
